<svg fill="#000000" xmlns="http://www.w3.org/2000/svg"  viewBox="0 0 64 64" width="64px" height="64px"><path fill="none" stroke="#000000" stroke-linejoin="round" stroke-miterlimit="10" stroke-width="2" d="M5.015,7.244l5.466,45.246c0.194,1.603,1.337,2.935,2.9,3.379l17.535,4.977c0.709,0.201,1.46,0.206,2.172,0.013l18.442-4.996c1.614-0.437,2.789-1.817,2.955-3.471l4.549-45.187C59.153,6.024,58.22,5,57.025,5H7.019C5.809,5,4.87,6.051,5.015,7.244z"/><path fill="none" stroke="#000000" stroke-linecap="round" stroke-linejoin="round" stroke-miterlimit="10" stroke-width="2" d="M7 9L7 11M12 9L12 11M17 9L17 11M22 9L22 11M27 9L27 11M32 9L32 11M37 9L37 11M42 9L42 11M47 9L47 11M52 9L52 11M57 9L57 11"/><path fill="none" stroke="#000000" stroke-linejoin="round" stroke-miterlimit="10" stroke-width="2" d="M47.018,17H17c-0.614,0-1.083,0.548-0.987,1.155l2.52,16.001C18.61,34.642,19.029,35,19.521,35h19.31c0.599,0,1.063,0.523,0.993,1.117l-0.769,6.508l-6.961,2.122l-6.147-2.082l-0.444-2.821C25.426,39.358,25.007,39,24.515,39h-4.049c-0.614,0-1.083,0.549-0.988,1.156l1.014,6.439c0.057,0.362,0.31,0.663,0.658,0.78l10.553,3.574C31.804,50.983,31.908,51,32.013,51c0.095,0,0.19-0.014,0.282-0.042l11.643-3.548c0.374-0.114,0.646-0.439,0.691-0.827l1.945-16.465C46.645,29.523,46.181,29,45.582,29H24.65c-0.492,0-0.911-0.358-0.988-0.844l-0.63-4C22.936,23.549,23.405,23,24.02,23h22.507c0.507,0,0.934-0.379,0.993-0.883l0.475-4.019C48.064,17.514,47.607,17,47.018,17z"/><path fill="none" stroke="#000000" stroke-linecap="round" stroke-miterlimit="10" stroke-width="2" d="M40 53.805L42 53.264M27 54.537L32.03 55.965 36 54.889"/></svg>